# xmcd
#
# Track frame offsets:
#	150
#	11947
#	24374
#	38722
#	50724
#	62587
#	73788
#	87739
#	99362
#	110854
#	120479
#	133198
#	144294
#	155608
#	165677
#	175252
#	187800
#	198560
#	212425
#	225608
#	238974
#	253357
#	265028
#
# Disc length: 3675 seconds
#
# Revision: 1
# Processed by: cddbd v1.5.2PL0 Copyright (c) Steve Scherf et al.
# Submitted via: audiograbber 1.83.01
#
DISCID=510e5917
DTITLE=Various Artist - Bluegrass - Out and Out - CD3
DYEAR=2012
DGENRE=Bluegrass
TTITLE0=Byron Parker and His Moutaineers - Gonna Lay Down My Old Guitar
TTITLE1=The Stanley Brothers With The Clinch Mountain Boys - Hey! Hey! Hey!
TTITLE2=Bill Carlisle's Kentucky Home Boys - Big At The Little Bottom At The To
TTITLE2=p
TTITLE3=The Morris Brothers - Let Me Be Your Salty Dog
TTITLE4=The Stanley Brothers With The Clinch Mountain Boys - I'm A Man Of Const
TTITLE4=ant Sorrow
TTITLE5=Jimmie Skinner - Too Hot To Handle
TTITLE6=Toby Stroud and The Blue Mountain Boys - Jesse James
TTITLE7=The McCormick Brothers - CNR Special
TTITLE8=The Lonesome Pine Fiddlers - Lonesome Pine Breakdown
TTITLE9=Jim and Jesse With The Virginia Boys - Air Mail Special
TTITLE10=The Lonesome Pine Fiddlers - Dirty Dishes Blues
TTITLE11=L C Smith and Ralph Mayo With The Southern Mountain Boys - Radio Boogie
TTITLE12=Mac Wiseman and The Country Boys - Crazy Blues
TTITLE13=Joe Maphis - Twin Banjo Special
TTITLE14=The McCormick Brothers - Bugle Call Rag
TTITLE15=The Stanley Brothers With The Clinch Mountain Boys - Train 45
TTITLE16=Arthur Smith and The Delmore Brothers - I'm Bound To Ride
TTITLE17=Bill Monroe and His Bluegrass Boys - Six White Horses
TTITLE18=Bill Monroe and His Bluegrass Boys - Blue Yodel No 7
TTITLE19=The Rouse Brothers - Orange Blossom Special
TTITLE20=Bill Monroe and His Bluegrass Boys - Dog House Blues
TTITLE21=Roy Hall and His Blue Ridge Entertainers - Polecat Blues
TTITLE22=The Stanley Brothers With The Clinch Mountain Boys - Clinch Moutain Ba
TTITLE22=ckstep
EXTD=
EXTT0=
EXTT1=
EXTT2=
EXTT3=
EXTT4=
EXTT5=
EXTT6=
EXTT7=
EXTT8=
EXTT9=
EXTT10=
EXTT11=
EXTT12=
EXTT13=
EXTT14=
EXTT15=
EXTT16=
EXTT17=
EXTT18=
EXTT19=
EXTT20=
EXTT21=
EXTT22=
PLAYORDER=
